<svg width="180" height="48" viewBox="0 0 180 48" fill="none" xmlns="http://www.w3.org/2000/svg">
<g clip-path="url(#clip0_4815_47120)">
<path d="M45.8947 37.6868L38.871 35.354L35.4641 8.30892C35.4441 8.14804 35.3608 8.00392 35.2343 7.90672C35.1077 7.80952 34.9412 7.76594 34.7847 7.78605L19.8448 9.90099C19.565 9.94121 19.3486 10.1725 19.3286 10.4574C19.3086 10.7389 19.4884 11.0004 19.7582 11.0808L27.6411 13.4035L11.6622 31.5196L0.831923 35.5148C0.565497 35.612 0.40231 35.8869 0.442274 36.1684C0.482238 36.4533 0.718692 36.6678 1.03174 36.688C1.06505 36.688 4.76172 36.5706 8.06541 36.5706C10.0902 36.5706 11.5689 36.6142 12.4548 36.698C15.0191 36.9427 19.0821 37.7538 20.2677 37.9985L20.3876 38.0152C20.6308 38.0152 20.8472 37.8678 20.9405 37.6398C21.0371 37.3985 20.9704 37.1203 20.774 36.9527L15.8817 32.7262C15.8817 32.7262 18.5193 29.7666 18.8757 29.3678C22.2593 29.0963 25.5796 28.922 29.2996 28.989C29.4595 30.8358 29.8191 35.8802 29.929 37.5527L22.8254 42.959C22.6023 43.13 22.5257 43.4383 22.6423 43.6964C22.7389 43.9076 22.9553 44.045 23.1851 44.045C23.2351 44.045 23.2817 44.0383 23.355 44.0182C23.4349 43.9914 31.5376 41.1826 36.0702 40.1469C39.3439 39.3995 44.3061 38.9738 45.7514 38.8632L45.828 38.8565C46.0911 38.7962 46.281 38.5649 46.2943 38.2968C46.3076 38.0286 46.1378 37.7806 45.8813 37.6935L45.8947 37.6868ZM28.9599 24.0218L23.0119 24.5111C23.0119 24.5111 27.8176 19.2858 28.3804 18.6624C28.5803 19.4333 28.8833 23.2643 28.9632 24.0218H28.9599Z" fill="#7BCD00"/>
<path d="M60.3783 11.8413C60.2284 11.6871 60.0153 11.6268 59.7988 11.6871L46.644 15.5383C46.3709 15.6187 46.1977 15.8835 46.2277 16.165C46.2577 16.4499 46.4841 16.6678 46.7672 16.6879L51.8393 17.0231L49.3848 29.039L42.7608 34.5861C42.5343 34.7336 42.4411 35.0151 42.5277 35.2698C42.6109 35.5078 42.8674 35.6821 43.0805 35.6687C43.5634 35.6352 47.4599 34.1604 52.8917 33.4767C55.2396 33.1817 57.0812 33.1013 58.2169 33.1214C59.0428 33.1348 59.6556 33.1214 59.8354 32.9236C59.9387 32.8097 59.972 32.6488 59.9586 32.4913C59.9353 32.2969 59.8221 32.1226 59.6656 32.0455L55.3395 28.8949L60.5181 12.4279C60.5814 12.22 60.5281 11.9955 60.3783 11.8413Z" fill="#7BCD00"/>
<path d="M98.9969 8.38775C98.8903 8.21011 98.6938 8.15648 98.504 8.0861C95.8997 7.1141 82.928 8.50171 78.1623 9.63459C77.9192 9.69492 77.7227 9.89267 77.6594 10.1407C76.6637 13.9784 75.6712 17.8195 74.6855 21.6606C74.6422 21.8281 74.6855 22.2639 75.1018 22.3544C75.3582 22.4113 75.6379 22.2471 75.7811 21.9991C77.5096 18.9926 79.3246 15.9258 81.1796 12.8858C82.1621 12.6947 83.0146 12.5238 83.8838 12.3964C82.3952 17.1022 80.71 21.9354 79.1481 26.963C76.5571 28.5014 73.4599 30.3348 71.5949 31.8297C71.3751 32.0073 71.2752 32.2788 71.3185 32.5235C71.3984 32.986 71.9279 32.8687 71.9912 32.8419C78.7218 31.1828 83.3144 30.603 89.5721 29.9058C89.9484 29.879 90.0816 29.6712 90.1282 29.5036C90.2015 29.2355 90.0849 28.9774 89.8351 28.8467C87.7537 27.764 86.5048 27.2211 84.6332 26.3932C86.1351 22.3812 90.348 11.6523 90.348 11.6523C91.2572 11.5149 93.1921 11.4311 93.1921 11.4311L92.8724 18.8518C92.8657 18.9892 92.9157 19.4384 93.2454 19.559C93.6184 19.6965 93.9714 19.4082 94.0247 19.301C95.7698 15.6643 97.455 12.1953 99.0302 8.97095C99.1201 8.7866 99.1101 8.56874 99.0035 8.38775H98.9969Z" fill="#7BCD00"/>
<path d="M130.828 29.793C130.139 29.4411 128.134 28.3484 127.628 28.087L129.423 22.4058C129.489 22.1678 129.726 21.2126 129.776 20.9713C130.265 18.6184 129.922 16.8487 128.757 15.7124C127.634 14.6164 125.573 13.9662 123.618 13.993C121.37 14.0232 119.548 14.6935 118.756 15.0823C117.956 15.4778 117.234 15.9873 116.614 16.604C115.962 17.2542 115.535 18.0385 115.352 18.9401C115.209 19.6373 115.212 20.1602 115.632 20.7534C115.925 21.1657 116.444 21.4506 116.981 21.598C116.658 21.6952 116.351 21.8125 116.041 21.9701C115.375 22.3086 114.786 22.7644 114.29 23.3242C113.774 23.9074 113.43 24.6179 113.264 25.4425C113.101 26.2469 113.204 26.9507 113.564 27.5339C113.9 28.0769 114.37 28.5193 114.966 28.8478C115.515 29.1528 116.145 29.3774 116.827 29.5148C117.487 29.6455 118.11 29.7159 118.682 29.7159C118.682 29.7159 121.047 29.7025 121.337 29.6891C121.337 29.6891 121.147 30.1617 121.07 30.3494C120.967 30.5941 120.791 30.9795 120.927 31.1538C121.194 31.499 122.106 31.2543 122.116 31.2543C127.195 30.7482 130.642 30.9594 130.642 30.9594C130.935 30.9527 131.171 30.7281 131.194 30.4365C131.214 30.1784 131.065 29.907 130.835 29.7896L130.828 29.793ZM119.705 24.4101C120.957 23.6761 122.899 24.1655 123.242 24.2392L122.536 26.2569C122.386 26.2737 120.721 26.4446 120.344 26.4446C119.135 26.448 118.796 25.8681 118.869 25.5061C118.956 25.0872 119.162 24.7319 119.705 24.4135V24.4101ZM119.865 21.0584C120.384 20.6998 121.257 20.1199 121.107 18.5111C121.09 18.3435 120.99 17.9949 120.91 17.8441C121.73 17.3246 122.532 17.2341 122.982 17.2341C122.982 17.2341 123.775 17.2509 124.118 17.4754C124.331 17.6162 124.467 17.8072 124.567 18.0419C125.097 19.3222 124.231 21.5679 124.141 21.8226C123.941 21.769 122.093 21.1355 119.861 21.0584H119.865Z" fill="#7BCD00"/>
<path d="M153.041 18.6531C152.975 18.3849 152.738 18.1905 152.469 18.1838C148.869 18.0163 145.255 17.7414 141.439 17.3493C141.955 17.0744 142.504 16.7761 143.18 16.4074C143.443 16.2667 143.543 15.9449 143.42 15.6667C143.32 15.4354 143.087 15.2812 142.841 15.2812C142.831 15.2812 134.695 16.1996 129.15 16.4611C128.847 16.4745 128.627 16.7258 128.637 17.0308C128.647 17.2856 128.823 17.5269 129.07 17.6208C130.735 18.2442 131.594 18.5626 133.206 19.1525L136.869 31.3829C136.933 31.5874 137.172 32.9348 137.699 32.9649C138.185 32.9917 138.958 32.0164 139.244 31.6678C142.501 27.7329 144.379 25.1353 147.037 21.6763C149.238 20.8786 150.377 20.3792 152.705 19.3972C152.968 19.2866 153.108 18.938 153.041 18.6564V18.6531ZM143.833 20.9121C142.344 22.6986 141.372 23.9052 140.057 25.2895L138.684 18.7704C139.107 18.5525 139.65 18.2944 140.003 18.1101C140.047 18.1939 140.11 18.2643 140.186 18.3246C141.492 19.3033 142.554 19.9804 143.833 20.9155V20.9121Z" fill="#7BCD00"/>
<path d="M163.299 21.7742C162.883 20.9899 162.243 20.3832 161.401 19.9676C160.598 19.5688 159.572 19.3844 158.353 19.4179C157.248 19.4481 156.109 19.6391 154.973 19.9777C153.827 20.3229 152.745 20.8055 151.749 21.4156C150.737 22.0356 149.818 22.7931 149.018 23.6612C148.196 24.5561 147.566 25.5784 147.15 26.6945C146.744 27.7771 146.581 28.8195 146.661 29.7949C146.744 30.7836 147.037 31.6685 147.536 32.4226C148.036 33.1801 149.295 35.3252 154.976 34.8459C156.359 34.7286 158.463 33.8538 159.835 32.6807C161.241 31.4774 162.037 30.3445 161.777 30.0161C161.624 29.825 161.344 29.7144 161.071 29.8787C159.849 30.6127 157.231 31.8763 154.65 31.7523C153.734 31.7087 152.179 31.2763 151.859 29.1111C155.849 29.0106 158.893 29.2385 162.45 28.9837C162.683 28.967 162.883 28.7994 162.959 28.5782C163.003 28.4575 163.898 26.3996 163.895 24.5025C163.895 23.4601 163.705 22.5451 163.296 21.7775L163.299 21.7742ZM158.643 25.8767C158.643 25.8767 155.006 25.8365 153.328 25.7795C153.424 25.6354 153.971 24.7438 155.15 24.0131C155.899 23.5473 156.572 23.3294 157.121 23.3294C158.01 23.3294 158.357 23.9495 158.543 24.2913C158.843 24.831 158.7 25.6086 158.643 25.8767Z" fill="#7BCD00"/>
<path d="M179.384 4.40049C179.225 4.25972 178.965 4.24296 178.758 4.35357C174.972 6.37801 170.972 8.04716 166.869 9.31076C166.606 9.3912 166.413 9.64929 166.409 9.92078C166.406 10.2392 166.639 10.4872 166.952 10.4973C167.865 10.5274 168.514 10.5375 169.127 10.5375C170.003 10.5375 170.842 10.5107 171.974 10.4436C171.079 13.4133 170.293 16.1114 169.533 18.7257C168.448 22.4495 167.425 25.9722 166.14 30.0981C165.624 30.5037 160.192 34.8442 159.875 35.1157C159.785 35.1928 159.303 35.4743 159.402 35.776C159.412 35.8061 159.482 36.0441 159.802 35.9838C164.178 35.1559 172.031 34.3079 174.026 34.2476C174.272 34.2409 174.419 34.0565 174.486 33.842C174.565 33.5772 174.469 33.3191 174.272 33.2219C173.623 32.746 171.049 30.9461 170.449 30.5138C173.443 22.3289 176.327 14.2177 179.518 5.0105C179.601 4.77924 179.548 4.54461 179.381 4.39714L179.384 4.40049Z" fill="#7BCD00"/>
<path d="M71.9279 38.8023C71.7714 39.1508 71.5715 39.4894 71.3551 39.8279H78.0157V46.2364C78.0157 47.0006 77.8592 47.4162 77.2697 47.6508C76.7102 47.8988 75.8943 47.9089 74.7353 47.9089C74.6654 47.4799 74.4356 46.833 74.2191 46.4174C74.9485 46.4576 75.7811 46.4576 76.0242 46.4576C76.2673 46.4442 76.3539 46.3805 76.3539 46.1995V45.4219H70.9687C70.7256 46.3939 70.266 47.3424 69.3802 48.0027C69.1504 47.6776 68.5076 47.0307 68.1479 46.8229C69.3802 45.8509 69.4801 44.4633 69.4801 43.2567V42.2076C68.9372 42.7271 68.3644 43.2064 67.705 43.622C67.4486 43.2735 66.9191 42.7137 66.5894 42.4288C68.0347 41.5607 69.1804 40.2502 70.0263 38.809H66.9191V37.3577H70.7556C70.9854 36.8247 71.1719 36.3086 71.3284 35.7891L73.0902 36.151C72.947 36.5533 72.7904 36.9555 72.6306 37.3577H79.6176V38.809H71.9279V38.8023ZM76.3539 44.1315V43.2869H71.2119C71.2119 43.5583 71.1985 43.8298 71.1819 44.1315H76.3506H76.3539ZM76.3539 41.1887H71.2119V42.0065H76.3539V41.1887Z" fill="#7BCD00"/>
<path d="M94.2977 44.0164C93.6949 44.8208 92.909 45.4677 91.9498 46.0006C93.282 46.2353 94.7573 46.4028 96.3459 46.4799C96.0029 46.8285 95.5866 47.4788 95.3867 47.9078C93.2687 47.7536 91.377 47.4285 89.7318 46.9224C88.0267 47.4553 86.0818 47.767 84.0603 47.948C83.9171 47.5961 83.5174 46.976 83.201 46.6643C84.8063 46.5872 86.3515 46.4062 87.727 46.1213C87.2108 45.8766 86.7245 45.5884 86.2816 45.28C85.7654 45.5247 85.2492 45.7325 84.763 45.9135C84.4899 45.642 83.9337 45.1225 83.5874 44.9013C84.1169 44.7572 84.6464 44.5762 85.1326 44.3684C84.8329 44.0701 84.5299 43.7583 84.2601 43.4098L85.6056 42.9171C85.8487 43.2154 86.1351 43.5003 86.4515 43.7583C87.0109 43.4466 87.5272 43.0981 87.9268 42.7193C87.2974 42.5517 87.1242 42.1864 87.1242 41.4356V40.5407H88.6861V41.4356C88.6861 41.7339 88.786 41.7607 89.2722 41.7607H90.7742C91.1173 41.7607 91.2172 41.6836 91.2605 41.1641C91.5768 41.3317 92.163 41.4892 92.5626 41.5529C92.4061 42.5517 92.0198 42.8232 90.9441 42.8232H89.6253L89.7119 42.85C89.5387 43.0444 89.3688 43.2388 89.169 43.4198H92.9356L93.222 43.3796L94.2944 44.0164H94.2977ZM85.2192 41.1641H83.6007V38.7911H85.9619C85.8187 38.4928 85.5889 38.1543 85.3591 37.8828L86.0884 37.5979C85.5023 37.6113 84.8995 37.6247 84.3267 37.6381C84.2967 37.313 84.1402 36.8069 83.997 36.522C87.5072 36.4583 91.6734 36.2103 94.0213 35.7812L95.1536 36.8069C94.5941 36.9108 93.978 37.0147 93.3353 37.0784L94.6108 37.4538C94.2511 37.9196 93.8814 38.3889 93.5351 38.7877H95.8397V41.3418H94.4776C94.8639 41.6669 95.1803 41.992 95.3801 42.2769L94.1645 43.1081C93.7482 42.4981 92.8057 41.63 91.9732 41.0334L93.1188 40.2927C93.4485 40.5139 93.8048 40.7854 94.1512 41.0569V39.9675H90.2713C90.6577 40.1485 90.9874 40.3563 91.2305 40.5373L90.3846 41.392C89.9416 41.0401 89.0658 40.5608 88.3364 40.2759L88.6528 39.9642H85.2159V41.1574L85.2192 41.1641ZM86.9943 40.9194C86.6779 41.6602 86.2217 42.4478 85.4623 42.9807L84.2734 42.1495C84.9195 41.7607 85.4324 41.0736 85.7055 40.41L86.9943 40.9161V40.9194ZM89.3289 37.4571C88.5129 37.4973 87.7103 37.5476 86.8944 37.5744C87.1808 37.8995 87.4372 38.2749 87.5405 38.5598L86.9377 38.7944H89.0291C88.9159 38.4693 88.6861 38.0671 88.4563 37.7454L89.3289 37.4605V37.4571ZM87.6404 44.5527C88.3131 44.9281 89.0724 45.2264 89.9183 45.4979C90.621 45.2264 91.2205 44.9147 91.7234 44.5393H87.6704L87.6404 44.5527ZM91.8632 38.7944C92.1796 38.3286 92.5926 37.6783 92.8524 37.1487C91.9232 37.2527 90.9174 37.3432 89.9017 37.4202C90.1881 37.7688 90.4445 38.1978 90.5178 38.5096L89.6586 38.7944H91.8632Z" fill="#7BCD00"/>
<path d="M121.57 42.1406C120.997 42.6601 120.294 43.2031 119.695 43.6321C120.138 44.8119 120.767 45.7973 121.67 46.3805C121.297 46.6654 120.767 47.2486 120.524 47.6508C118.736 46.3537 117.96 43.9673 117.53 41.0748C117.23 41.1384 116.901 41.1921 116.584 41.2557V45.6264L118.346 44.9929C118.359 45.4219 118.446 46.0554 118.533 46.3805C115.925 47.3793 115.452 47.5871 115.152 47.8084C115.009 47.4966 114.566 46.9537 114.306 46.7325C114.593 46.4978 114.953 46.0454 114.953 45.3817V40.6089L114.896 40.6591C114.596 40.4011 113.923 39.9184 113.537 39.724C113.71 39.5698 113.88 39.4123 114.037 39.2313H111.359V40.4882H113.95C113.95 40.4882 113.95 40.9172 113.937 41.0982C113.824 45.2108 113.707 46.7291 113.334 47.1816C113.078 47.5436 112.774 47.6743 112.388 47.7246C112.045 47.7882 111.529 47.7882 110.969 47.7748C110.939 47.3726 110.783 46.8162 110.566 46.4509C110.983 46.4911 111.369 46.4911 111.582 46.4911C111.769 46.4911 111.869 46.4509 111.982 46.2967C112.182 46.0252 112.298 44.9225 112.381 41.8859H111.336C111.249 43.8064 110.863 46.0118 109.374 47.9056C109.088 47.6207 108.545 47.2587 108.142 47.0509C109.644 45.0264 109.847 42.7573 109.847 40.9943V39.2313H108.502V37.8035H110.949C110.806 37.3242 110.576 36.6739 110.32 36.1812L111.795 35.7656C112.095 36.2985 112.398 37.0225 112.525 37.4918L111.566 37.8035H114.113V39.1375C114.873 38.2291 115.415 37.0359 115.732 35.779L117.364 36.0639C117.264 36.503 117.121 36.932 116.947 37.3476H121.457V38.7487H116.288C115.972 39.3184 115.645 39.8246 115.256 40.267C116.987 39.9285 118.822 39.4358 119.968 38.9162L121.27 39.9921C120.584 40.2636 119.795 40.4983 118.979 40.7195C119.049 41.239 119.152 41.7585 119.265 42.2512C119.682 41.8892 120.081 41.5004 120.354 41.1753L121.557 42.1339L121.57 42.1406Z" fill="#7BCD00"/>
<path d="M128.37 41.8412C128.157 43.0478 127.798 44.3181 127.355 45.3304C127.598 45.4611 127.884 45.6555 128.284 45.8633C129.273 46.3828 130.648 46.4733 132.337 46.4733C134.025 46.4733 136.603 46.3292 138.208 46.1482C138.022 46.5236 137.749 47.2509 137.722 47.6531C136.563 47.7034 133.955 47.7972 132.267 47.7972C130.349 47.7972 129.116 47.6665 128.057 47.1369C127.441 46.8252 126.942 46.3962 126.625 46.3962C126.352 46.3962 125.953 47.2777 125.696 48.005L124.607 46.5772C125.093 45.994 125.596 45.5382 126.026 45.2935C126.312 44.66 126.555 43.8154 126.728 43.011H125.153C125.44 42.2468 125.769 41.2077 126.042 40.1955H124.91V38.8213H127.831C127.574 39.7296 127.271 40.7653 126.985 41.6736H127.501L127.718 41.6334L128.377 41.8412H128.37ZM126.266 38.4426C126.109 37.8594 125.793 36.9108 125.58 36.2137L126.882 35.8651C127.125 36.5656 127.425 37.4471 127.628 38.0303L126.269 38.4459L126.266 38.4426ZM129.429 38.7409H128.254V37.4706H130.072C129.959 37.055 129.799 36.5622 129.643 36.1734L131.174 35.9288C131.391 36.4081 131.604 37.0181 131.734 37.4706H133.053V38.1979C133.526 37.484 133.912 36.6025 134.168 35.7344L135.6 36.083C135.487 36.4215 135.357 36.7432 135.227 37.0818H137.992V38.3521H134.611C134.455 38.637 134.295 38.885 134.138 39.1297H136.829L137.102 39.0526L138.005 39.6861C137.545 40.1922 136.989 40.7351 136.416 41.191V41.6971H138.078V42.9171H136.416V44.4489C136.416 45.0589 136.33 45.4209 135.857 45.6287C135.427 45.8365 134.825 45.8499 134.009 45.8499C133.965 45.4745 133.752 44.9416 133.536 44.5796C134.065 44.593 134.595 44.593 134.751 44.593C134.924 44.593 134.964 44.5528 134.964 44.4388V42.9205H133.359V41.7004H134.964V40.896C135.208 40.715 135.467 40.4938 135.694 40.2592H133.732V39.4414C133.459 39.2202 133.029 38.9219 132.76 38.7409H130.811V39.6861H133.059V40.219C132.973 43.7081 132.886 44.9918 132.56 45.394C132.343 45.7057 132.1 45.8231 131.744 45.8733C131.444 45.9236 130.985 45.9236 130.485 45.9236C130.455 45.5482 130.329 45.0287 130.112 44.6902C130.485 44.7304 130.772 44.7304 130.958 44.7304C131.115 44.7304 131.214 44.6902 131.314 44.5628C131.488 44.3282 131.557 43.4333 131.614 40.943H130.798C130.742 42.4981 130.412 44.4321 129.066 45.7426C128.853 45.4711 128.38 45.0421 128.077 44.8477C129.293 43.5774 129.423 41.6435 129.423 40.2961V38.7409H129.429Z" fill="#7BCD00"/>
<path d="M103.07 43.0662C103.738 43.0662 104.279 42.5214 104.279 41.8495C104.279 41.1775 103.738 40.6328 103.07 40.6328C102.402 40.6328 101.861 41.1775 101.861 41.8495C101.861 42.5214 102.402 43.0662 103.07 43.0662Z" fill="#7BCD00"/>
<path d="M113.614 17.2399C113.444 16.9147 113.207 16.6365 112.911 16.4086C112.648 16.2075 112.351 16.0399 112.028 15.9126C111.715 15.7886 111.396 15.7014 111.076 15.6511C110.17 15.5137 109.251 15.5707 108.388 15.8187C108.049 15.9159 107.702 16.0332 107.359 16.1606C107.649 15.4433 107.849 14.954 107.882 14.8702C107.909 14.706 107.872 14.5283 107.769 14.3875C107.652 14.23 107.469 14.1328 107.283 14.1328C107.266 14.1328 101.981 15.3294 99.4298 16.0768C98.4074 16.3751 97.3783 16.65 96.3692 16.9248C96.1061 16.9784 95.9163 17.213 95.9096 17.4879C95.8996 17.756 96.0628 18.0242 96.3159 18.0845C96.5457 18.1381 99.3232 18.299 100.705 18.4599C99.9893 21.5334 99.9293 22.5523 99.1933 25.7164C98.2408 26.1957 97.295 26.6917 96.3892 27.1878C95.3701 27.7442 94.3976 28.3072 93.3885 28.9106C93.1554 29.0513 93.0722 29.3731 93.1488 29.6345C93.222 29.8859 93.4452 30.0468 93.7882 30.0468C93.7882 30.0468 96.2526 29.6345 97.5481 29.534C100.742 29.2926 104.016 29.1954 107.459 29.1954L108.002 29.2323C108.278 29.2323 108.512 29.0446 108.548 28.7597C108.582 28.5083 108.452 28.2603 108.229 28.133C106.417 27.104 105.378 26.494 103.569 25.5454C103.569 25.5454 104.532 23.1556 105.551 20.6352C106.067 19.4419 107.213 19.3012 107.726 19.395C107.872 19.4218 107.935 19.452 107.945 19.4587C108.049 19.6397 108.145 19.8441 108.232 20.0654C108.358 20.3905 108.552 20.6955 108.808 20.9703C109.108 21.2954 109.557 21.4965 110.183 21.5904C110.973 21.7044 111.695 21.5468 112.331 21.1245C112.961 20.7089 113.411 20.1156 113.67 19.3648C113.774 19.0665 113.84 18.7381 113.863 18.3794C113.877 17.9605 113.793 17.575 113.614 17.2332V17.2399Z" fill="#7BCD00"/>
<path d="M50.5272 1.79381C50.0343 2.6485 50.0843 3.45627 50.6937 4.41486C50.9035 4.74333 51.1267 5.0718 51.3465 5.39691C51.6962 5.90973 52.0558 6.44265 52.3689 6.98563C52.5188 7.25042 52.6786 7.5085 52.8418 7.76993C53.3414 8.5777 53.8576 9.40892 54.0674 10.3541C54.074 10.3642 54.084 10.3742 54.0907 10.3809L54.1473 10.448C54.1706 10.4781 54.1873 10.4949 54.1972 10.5049C54.2505 10.5049 54.3538 10.4748 54.5036 10.4278C56.7117 9.69717 57.9372 8.46039 59.0029 7.25712C59.8155 6.3354 60.4183 5.43043 60.788 4.55563C61.3841 3.16132 61.4108 2.07536 60.8712 1.13688C60.7447 0.915663 60.6015 0.77489 60.445 0.714559C60.0087 0.543621 59.7223 0.453125 59.4592 0.453125C59.1495 0.453125 58.8031 0.590546 58.2236 0.94918C57.6675 1.29106 57.3211 1.70332 56.9747 2.21948C56.7749 2.51779 56.5884 2.81944 56.4053 3.1211C56.302 3.29203 56.1955 3.46297 56.0889 3.63391C56.0323 3.72105 55.969 3.8082 55.8824 3.92886L55.4062 4.58245L54.6102 3.6205C54.3504 3.30209 54.1073 3.01049 53.8609 2.71889C53.2914 2.04519 52.592 1.63628 51.6529 1.43518C51.13 1.32457 50.7304 1.44523 50.5339 1.78711L50.5272 1.79381Z" fill="white"/>
<path d="M55.7092 3.39297C56.0089 2.91702 56.2853 2.43773 56.605 1.96513C56.9447 1.45902 57.3344 0.96632 57.9905 0.560762C59.1594 -0.156507 59.559 -0.116286 60.6081 0.292624C60.9178 0.413286 61.1243 0.67472 61.2575 0.909341C61.9535 2.11596 61.7571 3.41643 61.1976 4.72695C60.7813 5.69895 60.1385 6.64078 59.3359 7.5491C58.167 8.87303 56.8715 10.1132 54.6435 10.8472C54.1839 10.998 54.014 10.9947 53.8009 10.7198C53.7409 10.6461 53.661 10.5724 53.6444 10.4886C53.3946 9.30875 52.5986 8.27977 51.9859 7.20387C51.4896 6.33242 50.8635 5.50455 50.3207 4.64986C49.7079 3.68792 49.5014 2.67905 50.1442 1.56293C50.4373 1.05346 51.0167 0.842306 51.7428 0.996485C52.905 1.24451 53.6477 1.77073 54.2005 2.42767C54.5735 2.87345 54.9432 3.32258 55.3828 3.85215C55.546 3.62759 55.6392 3.51363 55.7158 3.39297H55.7092ZM54.8433 6.68436C55.4194 6.51007 55.6625 5.49114 54.3671 5.58834C54.5502 5.92016 54.6601 6.34918 54.8433 6.68436ZM58.4967 2.99746C57.9472 3.2723 57.8772 3.6477 58.2968 3.82869C58.8763 3.44994 58.7764 3.22538 58.4967 2.99746ZM59.922 4.01639C59.2193 4.11359 59.3026 4.56272 59.609 5.1191C60.1851 4.70684 60.698 4.09012 59.922 4.01639ZM59.962 1.61655C59.1927 2.10255 59.8388 2.30366 60.2884 2.488C60.5815 2.3003 60.7646 1.35512 59.962 1.61655ZM57.5076 5.27328C57.5808 5.25317 58.0437 5.01185 58.117 4.99509C58.0404 4.8141 57.8539 4.64651 57.5275 4.47557C57.0113 4.93811 57.341 5.1258 57.5076 5.27328ZM57.381 6.76144C57.2544 6.7715 56.998 6.83853 56.7982 7.05304C56.7249 7.30778 56.6517 7.56251 56.5784 7.81724C56.7782 7.79377 56.9747 7.77031 57.1745 7.74685C57.1745 7.50553 57.3843 7.00612 57.381 6.7648V6.76144ZM58.7997 6.64413C58.833 6.66089 58.863 6.6743 58.893 6.69106C58.9896 6.62067 59.2726 6.60727 59.3359 6.53018C59.3992 6.45309 59.5357 6.25533 59.569 6.17154C59.5257 6.16149 58.9263 5.6051 58.883 5.59505C58.4401 5.93022 58.7098 6.42627 58.7964 6.64413H58.7997Z" fill="#F00F00"/>
</g>
<defs>
<clipPath id="clip0_4815_47120">
<rect width="179.122" height="48" fill="white" transform="translate(0.438965)"/>
</clipPath>
</defs>
</svg>
